<svg version="1.1" id="github-svg" xmlns="http://www.w3.org/2000/svg" xmlns:xlink="http://www.w3.org/1999/xlink" x="0px" y="0px"
	viewBox="0 0 50 50" enable-background="new 0 0 50 50" xml:space="preserve">
<path fill-rule="evenodd" clip-rule="evenodd" fill="#FFFFFF" d="M24.998,0.616C11.193,0.616,0,11.812,0,25.619
	C0,36.663,7.162,46.034,17.098,49.34c1.25,0.229,1.706-0.542,1.706-1.205c0-0.593-0.022-2.165-0.034-4.252
	c-6.953,1.511-8.421-3.351-8.421-3.351c-1.138-2.889-2.776-3.657-2.776-3.657c-2.27-1.552,0.172-1.521,0.172-1.521
	c2.51,0.178,3.83,2.576,3.83,2.576c2.229,3.82,5.851,2.718,7.275,2.078c0.227-1.615,0.873-2.717,1.587-3.342
	c-5.552-0.631-11.388-2.776-11.388-12.356c0-2.729,0.975-4.961,2.574-6.708c-0.258-0.633-1.115-3.175,0.244-6.615
	c0,0,2.1-0.674,6.875,2.563c1.994-0.555,4.133-0.834,6.259-0.842c2.123,0.008,4.262,0.287,6.259,0.842
	c4.773-3.236,6.868-2.563,6.868-2.563c1.364,3.44,0.506,5.982,0.249,6.615c1.602,1.747,2.569,3.979,2.569,6.708
	c0,9.604-5.845,11.718-11.415,12.337c0.898,0.771,1.697,2.297,1.697,4.629c0,3.342-0.03,6.039-0.03,6.858
	c0,0.669,0.45,1.446,1.72,1.202C42.843,46.024,50,36.661,50,25.619C50,11.812,38.805,0.616,24.998,0.616z"/>
</svg>
